<svg width="24" height="24" viewBox="0 0 24 24" fill="none" xmlns="http://www.w3.org/2000/svg">
<rect width="24" height="24" rx="12" fill="#D0DCF5" fill-opacity="0.08"/>
<path fill-rule="evenodd" clip-rule="evenodd" d="M12 6C12.5523 6 13 6.44772 13 7V14.5369L16.283 11.1601C16.668 10.7641 17.3011 10.7552 17.6971 11.1401C18.0931 11.5251 18.102 12.1582 17.717 12.5542L12.717 17.6971C12.5287 17.8907 12.2701 18 12 18C11.7299 18 11.4713 17.8907 11.283 17.6971L6.28301 12.5542C5.89802 12.1582 5.90694 11.5251 6.30292 11.1401C6.69891 10.7552 7.33201 10.7641 7.717 11.1601L11 14.5369V7C11 6.44772 11.4477 6 12 6Z" fill="#A2A8B4"/>
</svg>
