<svg width="24" height="24" viewBox="0 0 24 24" fill="none" xmlns="http://www.w3.org/2000/svg">
<rect width="24" height="24" rx="12" fill="#D0DCF5" fill-opacity="0.08"/>
<path fill-rule="evenodd" clip-rule="evenodd" d="M12 18C11.4477 18 11 17.5523 11 17L11 9.46313L7.71699 12.8399C7.33201 13.2359 6.69891 13.2448 6.30292 12.8599C5.90694 12.4749 5.89802 11.8418 6.283 11.4458L11.283 6.30292C11.4713 6.10926 11.7299 6 12 6C12.2701 6 12.5287 6.10926 12.717 6.30292L17.717 11.4458C18.102 11.8418 18.0931 12.4749 17.6971 12.8599C17.3011 13.2448 16.668 13.2359 16.283 12.8399L13 9.46313L13 17C13 17.5523 12.5523 18 12 18Z" fill="#A2A8B4"/>
</svg>
