<svg width="24" height="24" viewBox="0 0 24 24" fill="none" xmlns="http://www.w3.org/2000/svg">
<rect width="24" height="24" rx="12" fill="#D0DCF5" fill-opacity="0.08"/>
<path fill-rule="evenodd" clip-rule="evenodd" d="M19 12C19 15.866 15.866 19 12 19C8.13401 19 5 15.866 5 12C5 8.13401 8.13401 5 12 5C15.866 5 19 8.13401 19 12ZM11.93 8.7275C11.2921 8.7275 10.775 9.24461 10.775 9.8825C10.775 10.3078 10.4304 10.6525 10.0051 10.6525C9.57986 10.6525 9.23512 10.3078 9.23512 9.8825C9.23512 8.39409 10.4416 7.1875 11.93 7.1875C13.4184 7.1875 14.625 8.39409 14.625 9.8825V9.92405C14.625 10.8853 14.1207 11.7761 13.2964 12.2706L12.9865 12.4566C12.8088 12.5632 12.7 12.7553 12.7 12.9625C12.7 13.3878 12.3554 13.7325 11.9301 13.7325C11.5049 13.7325 11.1601 13.3878 11.1601 12.9625C11.1601 12.2143 11.5526 11.521 12.1941 11.1361L12.5041 10.9501C12.8645 10.7338 13.085 10.3444 13.085 9.92405V9.8825C13.085 9.24461 12.5679 8.7275 11.93 8.7275ZM11.9301 16.8125C12.4617 16.8125 12.8926 16.3816 12.8926 15.85C12.8926 15.3185 12.4617 14.8875 11.9301 14.8875C11.3985 14.8875 10.9676 15.3185 10.9676 15.85C10.9676 16.3816 11.3985 16.8125 11.9301 16.8125Z" fill="#A2A8B4"/>
</svg>
