<svg width="24" height="24" viewBox="0 0 24 24" fill="none" xmlns="http://www.w3.org/2000/svg">
<rect width="24" height="24" rx="12" fill="#D0DCF5" fill-opacity="0.08"/>
<g clip-path="url(#clip0_86_575)">
<path fill-rule="evenodd" clip-rule="evenodd" d="M6.88473 6.75864C6.66675 7.18647 6.66675 7.74652 6.66675 8.86663V15.1333C6.66675 16.2534 6.66675 16.8134 6.88473 17.2413C7.07648 17.6176 7.38244 17.9236 7.75877 18.1153C8.18659 18.3333 8.74664 18.3333 9.86675 18.3333H14.1334C15.2535 18.3333 15.8136 18.3333 16.2414 18.1153C16.6177 17.9236 16.9237 17.6176 17.1154 17.2413C17.3334 16.8134 17.3334 16.2534 17.3334 15.1333V10.9921C17.3334 10.5029 17.3334 10.2583 17.2782 10.0282C17.2292 9.82409 17.1484 9.629 17.0387 9.45006C16.915 9.24822 16.7421 9.07527 16.3962 8.72937L14.2707 6.60388C13.9248 6.25798 13.7518 6.08503 13.55 5.96135C13.371 5.85169 13.176 5.77088 12.9719 5.72189C12.7417 5.66663 12.4971 5.66663 12.0079 5.66663H9.86675C8.74664 5.66663 8.18659 5.66663 7.75877 5.88461C7.38244 6.07636 7.07648 6.38232 6.88473 6.75864ZM12.6667 7.66663L15.3334 10.3333H12.6667V7.66663Z" fill="#A2A8B4"/>
</g>
<defs>
<clipPath id="clip0_86_575">
<rect width="16" height="16" fill="white" transform="translate(4 4)"/>
</clipPath>
</defs>
</svg>
