<svg width="24" height="24" viewBox="0 0 24 24" fill="none" xmlns="http://www.w3.org/2000/svg">
<g clip-path="url(#clip0_109_931)">
<path fill-rule="evenodd" clip-rule="evenodd" d="M12.7808 21.9C13.1532 21.9 13.4872 21.6707 13.6209 21.3231C14.4976 19.0436 16.8479 17.6866 19.2604 18.0671C19.6282 18.1251 19.9938 17.9506 20.18 17.6281L20.963 16.2719C21.1492 15.9494 21.1175 15.5455 20.8834 15.256C19.3477 13.357 19.3476 10.643 20.8834 8.74403C21.1175 8.45447 21.1492 8.0506 20.963 7.7281L20.18 6.3719C19.9938 6.0494 19.6282 5.87488 19.2604 5.93289C16.8479 6.31337 14.4976 4.9564 13.6209 2.67692C13.4872 2.32935 13.1532 2.1 12.7808 2.1L11.2148 2.1C10.8424 2.1 10.5085 2.32935 10.3748 2.67692C9.49801 4.95665 7.14709 6.31328 4.73486 5.93284C4.36701 5.87483 4.00142 6.04935 3.81522 6.37185L3.03222 7.72805C2.84602 8.05056 2.87767 8.45442 3.11184 8.74398C4.64758 10.643 4.64757 13.3569 3.11184 15.2559C2.87768 15.5455 2.84602 15.9493 3.03222 16.2719L1.64658 17.0719C1.12937 16.176 1.21729 15.0542 1.86775 14.2498C2.92894 12.9376 2.92894 11.0623 1.86775 9.75008C1.21729 8.94575 1.12936 7.8239 1.64658 6.92805L2.42958 5.57185C2.9468 4.67601 3.96231 4.19123 4.98411 4.35238C6.65113 4.61529 8.27565 3.6777 8.88147 2.10256C9.25281 1.13707 10.1804 0.500001 11.2148 0.500001L12.7808 0.500001C13.8153 0.500001 14.7429 1.13707 15.1142 2.10255C15.72 3.67768 17.3441 4.61533 19.0111 4.35242C20.0329 4.19127 21.0484 4.67606 21.5656 5.5719L22.3486 6.9281C22.8659 7.82394 22.7779 8.9458 22.1275 9.75013C21.0663 11.0623 21.0663 12.9377 22.1275 14.2499C22.7779 15.0542 22.8659 16.1761 22.3486 17.0719L21.5656 18.4281C21.0484 19.3239 20.0329 19.8087 19.0111 19.6476C17.3441 19.3847 15.72 20.3223 15.1142 21.8975C14.7429 22.8629 13.8153 23.5 12.7808 23.5L11.2148 23.5C10.1804 23.5 9.25282 22.8629 8.88148 21.8974L10.3748 21.3231C10.5085 21.6707 10.8425 21.9 11.2148 21.9L12.7808 21.9ZM8.88148 21.8974L10.3748 21.3231C9.49802 19.0434 7.14722 17.6866 4.73486 18.0671C4.36701 18.1251 4.00142 17.9506 3.81522 17.628L3.03222 16.2719L1.64658 17.0719L2.42958 18.4281C2.9468 19.3239 3.96232 19.8087 4.98412 19.6475C6.6512 19.3846 8.27564 20.3223 8.88148 21.8974ZM7.89785 12C7.89785 9.73563 9.73348 7.9 11.9978 7.9C14.2622 7.9 16.0978 9.73563 16.0978 12C16.0978 14.2644 14.2622 16.1 11.9978 16.1C9.73348 16.1 7.89785 14.2644 7.89785 12ZM9.49785 12C9.49785 10.6193 10.6171 9.5 11.9978 9.5C13.3786 9.5 14.4978 10.6193 14.4978 12C14.4978 13.3807 13.3786 14.5 11.9978 14.5C10.6171 14.5 9.49785 13.3807 9.49785 12Z" fill="#A2A8B4"/>
</g>
<defs>
<clipPath id="clip0_109_931">
<rect width="24" height="24" fill="white"/>
</clipPath>
</defs>
</svg>
